<svg width="30" height="30" viewBox="0 0 30 30" fill="none" xmlns="http://www.w3.org/2000/svg">
<path d="M1.25 22.5C1.4375 20.2708 2.12 18.2188 3.2975 16.3438C4.475 14.4688 6.0425 12.9792 8 11.875L5.6875 7.875C5.5625 7.6875 5.53125 7.48958 5.59375 7.28125C5.65625 7.07292 5.79167 6.91667 6 6.8125C6.16667 6.70833 6.35417 6.6875 6.5625 6.75C6.77083 6.8125 6.9375 6.9375 7.0625 7.125L9.375 11.125C11.1667 10.375 13.0417 10 15 10C16.9583 10 18.8333 10.375 20.625 11.125L22.9375 7.125C23.0625 6.9375 23.2292 6.8125 23.4375 6.75C23.6458 6.6875 23.8333 6.70833 24 6.8125C24.2083 6.91667 24.3437 7.07292 24.4062 7.28125C24.4687 7.48958 24.4375 7.6875 24.3125 7.875L22 11.875C23.9583 12.9792 25.5258 14.4688 26.7025 16.3438C27.8792 18.2188 28.5617 20.2708 28.75 22.5H1.25ZM9.86 18.6088C10.1617 18.3071 10.3125 17.9375 10.3125 17.5C10.3125 17.0625 10.1613 16.6925 9.85875 16.39C9.55625 16.0875 9.18667 15.9367 8.75 15.9375C8.31333 15.9383 7.94333 16.0896 7.64 16.3913C7.33667 16.6929 7.18583 17.0625 7.1875 17.5C7.18917 17.9375 7.34042 18.3075 7.64125 18.61C7.94208 18.9125 8.31167 19.0633 8.75 19.0625C9.18833 19.0617 9.55833 18.9104 9.86 18.6088ZM22.36 18.6088C22.6617 18.3071 22.8125 17.9375 22.8125 17.5C22.8125 17.0625 22.6612 16.6925 22.3587 16.39C22.0562 16.0875 21.6867 15.9367 21.25 15.9375C20.8133 15.9383 20.4433 16.0896 20.14 16.3913C19.8367 16.6929 19.6858 17.0625 19.6875 17.5C19.6892 17.9375 19.8404 18.3075 20.1413 18.61C20.4421 18.9125 20.8117 19.0633 21.25 19.0625C21.6883 19.0617 22.0583 18.9104 22.36 18.6088Z" fill="#E60012"/>
</svg>
