<svg width="27" height="28" viewBox="0 0 27 28" fill="none" xmlns="http://www.w3.org/2000/svg">
<g clip-path="url(#clip0_848_202)">
<path d="M11.4501 5.6892L6.63998 3.32834L1.35906 5.89077L6.30039 8.30315L11.4501 5.6892ZM13.6565 6.77152L18.7001 9.24831L13.4675 11.8028L8.5185 9.38689L13.6565 6.77152ZM20.3933 3.36355L25.5755 5.89077L20.9402 8.15352L15.8862 5.67427L20.3933 3.36355ZM18.1625 2.27516L13.4971 0L8.88255 2.24L13.6901 4.59692L18.1625 2.27516ZM14.5155 21.8093V28L20.1667 25.2574L20.1616 19.0642L14.5155 21.8093ZM20.159 16.9027L20.1524 10.7749L14.5155 13.5V19.6301L20.159 16.9027ZM26.9438 15.755V21.9696L22.1231 24.3077L22.119 18.122L26.9438 15.755ZM26.9438 13.5818V7.49202L22.118 9.8262V15.9665L26.9438 13.5818ZM12.5204 13.5L8.71403 11.6379V19.6805L3.62762 9.18258C3.57204 9.07058 3.34395 8.94835 3.28545 8.91811L0 7.28798V21.5021L3.38417 23.2658V15.8329L8.03779 24.5345C8.08566 24.6287 8.54556 25.5347 9.04044 25.8532C9.69733 26.2779 12.5178 27.9268 12.5178 27.9268L12.5204 13.5Z" fill="#E60012"/>
</g>
<defs>
<clipPath id="clip0_848_202">
<rect width="27" height="28" fill="white"/>
</clipPath>
</defs>
</svg>
