<svg width="24" height="24" viewBox="0 0 24 24" fill="none" xmlns="http://www.w3.org/2000/svg">
<path d="M6.75 9.001L10.044 13.612C10.1796 13.8018 10.3569 13.9581 10.5623 14.0686C10.7677 14.1792 10.9958 14.2413 11.2289 14.25C11.462 14.2586 11.694 14.2138 11.9071 14.1188C12.1202 14.0238 12.3086 13.8812 12.458 13.702L23.25 0.75" stroke="#D9001B" stroke-width="1.5" stroke-linecap="round" stroke-linejoin="round"/>
<path d="M21.75 10.501V20.251C21.75 21.0466 21.4339 21.8097 20.8713 22.3723C20.3087 22.9349 19.5456 23.251 18.75 23.251H3.75C2.95435 23.251 2.19129 22.9349 1.62868 22.3723C1.06607 21.8097 0.75 21.0466 0.75 20.251V5.25098C0.75 4.45533 1.06607 3.69227 1.62868 3.12966C2.19129 2.56705 2.95435 2.25098 3.75 2.25098H16.5" stroke="#E5E5E5" stroke-width="1.5" stroke-linecap="round" stroke-linejoin="round"/>
</svg>
