<svg width="82" height="82" viewBox="0 0 82 82" fill="none" xmlns="http://www.w3.org/2000/svg">
<path d="M63.3418 42.6416C64.4362 44.5635 65.2503 46.5654 65.7842 48.6475C66.318 50.7295 66.5983 52.8783 66.625 55.0938V59.2178L41 72.0703L15.375 59.2178C15.375 57.6162 15.3883 56.1214 15.415 54.7334C15.4417 53.3454 15.5618 51.9974 15.7754 50.6895C15.9889 49.3815 16.3092 48.0736 16.7363 46.7656C17.1634 45.4577 17.804 44.083 18.6582 42.6416L10.25 38.4375V61.9404C11.0241 62.2074 11.7181 62.5811 12.332 63.0615C12.946 63.542 13.4932 64.1025 13.9736 64.7432C14.4541 65.3838 14.8011 66.0778 15.0146 66.8252C15.2282 67.5726 15.3483 68.36 15.375 69.1875V82H0V69.1875C0 68.3867 0.120117 67.6126 0.360352 66.8652C0.600586 66.1178 0.947591 65.4105 1.40137 64.7432C1.85514 64.0758 2.389 63.5153 3.00293 63.0615C3.61686 62.6077 4.32422 62.2341 5.125 61.9404V35.875L0 33.3125L41 12.8125L82 33.3125L63.3418 42.6416ZM10.25 69.1875C10.25 68.4935 9.99642 67.8929 9.48926 67.3857C8.9821 66.8786 8.38151 66.625 7.6875 66.625C6.99349 66.625 6.3929 66.8786 5.88574 67.3857C5.37858 67.8929 5.125 68.4935 5.125 69.1875V76.875H10.25V69.1875ZM11.4512 33.3125L41 48.0869L70.5488 33.3125L41 18.5381L11.4512 33.3125ZM61.5 56.0547C61.5 53.9993 61.2998 52.0908 60.8994 50.3291C60.499 48.5674 59.7917 46.7656 58.7773 44.9238L41 53.8125L23.2227 44.9238C22.3418 46.472 21.6745 48.1003 21.2207 49.8086C20.7669 51.5169 20.5267 53.2786 20.5 55.0938V56.0547L41 66.3047L61.5 56.0547Z" fill="#D9001B"/>
</svg>
